<?xml version="1.0" encoding="utf-8"?>
<!-- Generator: Adobe Illustrator 24.3.0, SVG Export Plug-In . SVG Version: 6.00 Build 0)  -->
<svg version="1.1" id="Layer_1" xmlns="http://www.w3.org/2000/svg" xmlns:xlink="http://www.w3.org/1999/xlink" x="0px" y="0px"
	 viewBox="0 0 32 32" enable-background="new 0 0 32 32" xml:space="preserve">
<g>
	<g>
		<path d="M21.08,1.886c-0.155-0.229-0.467-0.287-0.695-0.132l-4.167,2.833C16.082,4.68,16,4.834,16,5v5.499h1V5.265l3.948-2.685
			C21.176,2.425,21.235,2.114,21.08,1.886z"/>
	</g>
	<g>
		<path d="M19.5,29h-7c-0.249,0-0.46-0.183-0.495-0.43l-2-14c-0.021-0.144,0.022-0.288,0.117-0.397C10.217,14.062,10.355,14,10.5,14
			h11c0.145,0,0.283,0.062,0.378,0.173c0.095,0.109,0.138,0.254,0.117,0.397l-2,14C19.96,28.817,19.749,29,19.5,29z M12.934,28
			h6.133l1.857-13h-9.847L12.934,28z"/>
	</g>
	<g>
		<path d="M23.5,15h-15C8.224,15,8,14.776,8,14.5c0-1.388,1.112-2.5,2.48-2.5h11.04c1.368,0,2.48,1.112,2.48,2.48
			C24,14.757,23.776,15,23.5,15z M9.08,14h13.84c-0.2-0.581-0.752-1-1.4-1H10.48C9.832,13,9.28,13.419,9.08,14z"/>
	</g>
	<g>
		<path d="M21.199,13h-10c-0.276,0-0.5-0.224-0.5-0.5c0-1.388,1.112-2.5,2.48-2.5h6.04c1.368,0,2.48,1.112,2.48,2.48
			C21.699,12.757,21.475,13,21.199,13z M11.779,12h8.84c-0.2-0.581-0.752-1-1.4-1h-6.04C12.531,11,11.979,11.419,11.779,12z"/>
	</g>
	<g>
		<path d="M16.062,21.945c-1.659,0-3.008-1.349-3.008-3.008s1.35-3.008,3.008-3.008s3.008,1.349,3.008,3.008
			S17.721,21.945,16.062,21.945z M16.062,16.82c-1.167,0-2.117,0.95-2.117,2.117s0.95,2.117,2.117,2.117s2.117-0.95,2.117-2.117
			S17.229,16.82,16.062,16.82z"/>
	</g>
</g>
</svg>
